<svg xmlns="http://www.w3.org/2000/svg" xmlns:xlink="http://www.w3.org/1999/xlink" width="160" zoomAndPan="magnify" viewBox="0 0 120 36.000001" height="48" preserveAspectRatio="xMidYMid meet" version="1.2"><defs><clipPath id="3da1b84c87"><path d="M 1.621094 0 L 118.378906 0 L 118.378906 35.027344 L 1.621094 35.027344 Z M 1.621094 0 "/></clipPath><clipPath id="51e6530d05"><path d="M 9.152344 4.769531 L 33.234375 4.769531 L 33.234375 28.847656 L 9.152344 28.847656 Z M 9.152344 4.769531 "/></clipPath><clipPath id="9b9e091aa1"><path d="M 11.445312 18 L 14 18 L 14 21.605469 L 11.445312 21.605469 Z M 11.445312 18 "/></clipPath><clipPath id="a7b45e7aa8"><path d="M 11.445312 17.957031 L 14.363281 17.957031 L 14.363281 21.605469 L 11.445312 21.605469 Z M 11.445312 17.957031 "/></clipPath></defs><g id="2b38d7fab1"><g clip-rule="nonzero" clip-path="url(#3da1b84c87)"><path style=" stroke:none;fill-rule:nonzero;fill:#ffffff;fill-opacity:1;" d="M 1.621094 0 L 118.378906 0 L 118.378906 35.027344 L 1.621094 35.027344 Z M 1.621094 0 "/><path style=" stroke:none;fill-rule:nonzero;fill:#000000;fill-opacity:1;" d="M 1.621094 0 L 118.378906 0 L 118.378906 35.027344 L 1.621094 35.027344 Z M 1.621094 0 "/></g><path style=" stroke:none;fill-rule:nonzero;fill:#ffffff;fill-opacity:1;" d="M 26.714844 9.320312 C 25.148438 9.535156 24.976562 9.707031 24.761719 11.273438 C 24.550781 9.707031 24.375 9.535156 22.8125 9.320312 C 24.375 9.109375 24.550781 8.9375 24.761719 7.371094 C 24.976562 8.9375 25.148438 9.109375 26.714844 9.320312 "/><path style=" stroke:none;fill-rule:nonzero;fill:#ffffff;fill-opacity:1;" d="M 19.179688 23.304688 C 16.613281 23.65625 16.332031 23.9375 15.984375 26.503906 C 15.632812 23.9375 15.351562 23.65625 12.785156 23.304688 C 15.351562 22.957031 15.632812 22.675781 15.984375 20.109375 C 16.332031 22.675781 16.613281 22.957031 19.179688 23.304688 "/><g clip-rule="nonzero" clip-path="url(#51e6530d05)"><path style=" stroke:none;fill-rule:nonzero;fill:#ffffff;fill-opacity:1;" d="M 33.21875 16.800781 C 22.449219 17.5 21.882812 18.066406 21.183594 28.835938 C 20.488281 18.066406 19.921875 17.5 9.152344 16.800781 C 19.921875 16.105469 20.488281 15.539062 21.183594 4.769531 C 21.882812 15.539062 22.449219 16.105469 33.21875 16.800781 "/></g><g style="fill:#ffffff;fill-opacity:1;"><g transform="translate(34.976859, 18.142228)"><path style="stroke:none" d="M 5.21875 -13.25 C 5.9375 -13.25 6.492188 -13.171875 6.890625 -13.015625 C 7.285156 -12.859375 7.625 -12.695312 7.90625 -12.53125 C 8.050781 -12.445312 8.164062 -12.382812 8.25 -12.34375 C 8.34375 -12.300781 8.4375 -12.28125 8.53125 -12.28125 C 8.644531 -12.28125 8.726562 -12.34375 8.78125 -12.46875 C 8.84375 -12.601562 8.894531 -12.804688 8.9375 -13.078125 L 9.359375 -13.078125 C 9.335938 -12.847656 9.316406 -12.570312 9.296875 -12.25 C 9.285156 -11.925781 9.273438 -11.5 9.265625 -10.96875 C 9.265625 -10.445312 9.265625 -9.753906 9.265625 -8.890625 L 8.84375 -8.890625 C 8.789062 -9.523438 8.640625 -10.144531 8.390625 -10.75 C 8.148438 -11.351562 7.804688 -11.847656 7.359375 -12.234375 C 6.910156 -12.617188 6.363281 -12.8125 5.71875 -12.8125 C 5.125 -12.8125 4.632812 -12.644531 4.25 -12.3125 C 3.875 -11.976562 3.6875 -11.519531 3.6875 -10.9375 C 3.6875 -10.445312 3.804688 -10.023438 4.046875 -9.671875 C 4.296875 -9.328125 4.65625 -8.988281 5.125 -8.65625 C 5.601562 -8.320312 6.179688 -7.921875 6.859375 -7.453125 C 7.441406 -7.078125 7.960938 -6.695312 8.421875 -6.3125 C 8.890625 -5.9375 9.265625 -5.507812 9.546875 -5.03125 C 9.835938 -4.550781 9.984375 -3.984375 9.984375 -3.328125 C 9.984375 -2.515625 9.769531 -1.84375 9.34375 -1.3125 C 8.914062 -0.789062 8.359375 -0.398438 7.671875 -0.140625 C 6.992188 0.117188 6.242188 0.25 5.421875 0.25 C 4.660156 0.25 4.050781 0.175781 3.59375 0.03125 C 3.144531 -0.113281 2.769531 -0.265625 2.46875 -0.421875 C 2.195312 -0.597656 1.988281 -0.6875 1.84375 -0.6875 C 1.71875 -0.6875 1.625 -0.617188 1.5625 -0.484375 C 1.507812 -0.347656 1.46875 -0.144531 1.4375 0.125 L 1.015625 0.125 C 1.035156 -0.164062 1.046875 -0.503906 1.046875 -0.890625 C 1.054688 -1.285156 1.0625 -1.796875 1.0625 -2.421875 C 1.070312 -3.054688 1.078125 -3.859375 1.078125 -4.828125 L 1.5 -4.828125 C 1.550781 -4.023438 1.691406 -3.269531 1.921875 -2.5625 C 2.148438 -1.851562 2.5 -1.285156 2.96875 -0.859375 C 3.4375 -0.429688 4.0625 -0.21875 4.84375 -0.21875 C 5.28125 -0.21875 5.664062 -0.296875 6 -0.453125 C 6.332031 -0.609375 6.601562 -0.835938 6.8125 -1.140625 C 7.019531 -1.441406 7.125 -1.820312 7.125 -2.28125 C 7.125 -2.789062 7.003906 -3.234375 6.765625 -3.609375 C 6.523438 -3.992188 6.203125 -4.351562 5.796875 -4.6875 C 5.390625 -5.019531 4.914062 -5.359375 4.375 -5.703125 C 3.800781 -6.078125 3.257812 -6.453125 2.75 -6.828125 C 2.25 -7.210938 1.847656 -7.648438 1.546875 -8.140625 C 1.253906 -8.628906 1.109375 -9.210938 1.109375 -9.890625 C 1.109375 -10.660156 1.300781 -11.289062 1.6875 -11.78125 C 2.070312 -12.28125 2.578125 -12.648438 3.203125 -12.890625 C 3.835938 -13.128906 4.507812 -13.25 5.21875 -13.25 Z M 5.21875 -13.25 "/></g></g><g style="fill:#ffffff;fill-opacity:1;"><g transform="translate(45.704966, 18.142228)"><path style="stroke:none" d="M 4.1875 -9.703125 L 4.1875 1.5 C 4.1875 2.082031 4.332031 2.46875 4.625 2.65625 C 4.925781 2.84375 5.332031 2.9375 5.84375 2.9375 L 5.84375 3.328125 C 5.519531 3.316406 5.078125 3.300781 4.515625 3.28125 C 3.960938 3.257812 3.375 3.25 2.75 3.25 C 2.300781 3.25 1.859375 3.257812 1.421875 3.28125 C 0.984375 3.300781 0.65625 3.316406 0.4375 3.328125 L 0.4375 2.9375 C 0.84375 2.9375 1.128906 2.847656 1.296875 2.671875 C 1.460938 2.503906 1.546875 2.175781 1.546875 1.6875 L 1.546875 -7.5 C 1.546875 -8.050781 1.457031 -8.457031 1.28125 -8.71875 C 1.113281 -8.976562 0.8125 -9.109375 0.375 -9.109375 L 0.375 -9.5 C 0.757812 -9.457031 1.132812 -9.4375 1.5 -9.4375 C 2.007812 -9.4375 2.488281 -9.457031 2.9375 -9.5 C 3.394531 -9.550781 3.8125 -9.617188 4.1875 -9.703125 Z M 7.03125 -9.75 C 7.65625 -9.75 8.210938 -9.582031 8.703125 -9.25 C 9.191406 -8.914062 9.582031 -8.40625 9.875 -7.71875 C 10.175781 -7.039062 10.328125 -6.195312 10.328125 -5.1875 C 10.328125 -4.289062 10.222656 -3.503906 10.015625 -2.828125 C 9.816406 -2.148438 9.53125 -1.582031 9.15625 -1.125 C 8.78125 -0.664062 8.332031 -0.320312 7.8125 -0.09375 C 7.289062 0.132812 6.707031 0.25 6.0625 0.25 C 5.582031 0.25 5.144531 0.164062 4.75 0 C 4.363281 -0.15625 4.066406 -0.390625 3.859375 -0.703125 L 4.046875 -0.9375 C 4.160156 -0.71875 4.332031 -0.546875 4.5625 -0.421875 C 4.789062 -0.296875 5.050781 -0.234375 5.34375 -0.234375 C 5.894531 -0.234375 6.328125 -0.421875 6.640625 -0.796875 C 6.960938 -1.171875 7.191406 -1.695312 7.328125 -2.375 C 7.472656 -3.0625 7.546875 -3.875 7.546875 -4.8125 C 7.546875 -5.863281 7.476562 -6.6875 7.34375 -7.28125 C 7.207031 -7.882812 7.023438 -8.316406 6.796875 -8.578125 C 6.566406 -8.835938 6.285156 -8.96875 5.953125 -8.96875 C 5.515625 -8.96875 5.113281 -8.796875 4.75 -8.453125 C 4.382812 -8.109375 4.179688 -7.617188 4.140625 -6.984375 L 4.046875 -7.625 C 4.265625 -8.320312 4.640625 -8.847656 5.171875 -9.203125 C 5.703125 -9.566406 6.320312 -9.75 7.03125 -9.75 Z M 7.03125 -9.75 "/></g></g><g style="fill:#ffffff;fill-opacity:1;"><g transform="translate(56.726997, 18.142228)"><path style="stroke:none" d="M 2.984375 0.125 C 2.429688 0.125 1.96875 0.0195312 1.59375 -0.1875 C 1.226562 -0.394531 0.957031 -0.671875 0.78125 -1.015625 C 0.613281 -1.367188 0.53125 -1.753906 0.53125 -2.171875 C 0.53125 -2.691406 0.648438 -3.117188 0.890625 -3.453125 C 1.128906 -3.785156 1.4375 -4.054688 1.8125 -4.265625 C 2.195312 -4.472656 2.597656 -4.644531 3.015625 -4.78125 C 3.441406 -4.914062 3.847656 -5.046875 4.234375 -5.171875 C 4.617188 -5.296875 4.929688 -5.445312 5.171875 -5.625 C 5.410156 -5.800781 5.53125 -6.035156 5.53125 -6.328125 L 5.53125 -7.75 C 5.53125 -8.070312 5.476562 -8.359375 5.375 -8.609375 C 5.269531 -8.859375 5.109375 -9.050781 4.890625 -9.1875 C 4.679688 -9.320312 4.40625 -9.390625 4.0625 -9.390625 C 3.8125 -9.390625 3.5625 -9.351562 3.3125 -9.28125 C 3.070312 -9.21875 2.875 -9.109375 2.71875 -8.953125 C 3.0625 -8.828125 3.328125 -8.640625 3.515625 -8.390625 C 3.703125 -8.140625 3.796875 -7.851562 3.796875 -7.53125 C 3.796875 -7.113281 3.648438 -6.78125 3.359375 -6.53125 C 3.078125 -6.289062 2.742188 -6.171875 2.359375 -6.171875 C 1.910156 -6.171875 1.570312 -6.304688 1.34375 -6.578125 C 1.125 -6.859375 1.015625 -7.195312 1.015625 -7.59375 C 1.015625 -7.945312 1.101562 -8.238281 1.28125 -8.46875 C 1.457031 -8.695312 1.703125 -8.914062 2.015625 -9.125 C 2.359375 -9.320312 2.769531 -9.472656 3.25 -9.578125 C 3.738281 -9.691406 4.265625 -9.75 4.828125 -9.75 C 5.390625 -9.75 5.894531 -9.691406 6.34375 -9.578125 C 6.800781 -9.460938 7.1875 -9.253906 7.5 -8.953125 C 7.78125 -8.671875 7.960938 -8.320312 8.046875 -7.90625 C 8.128906 -7.5 8.171875 -6.984375 8.171875 -6.359375 L 8.171875 -1.359375 C 8.171875 -1.054688 8.203125 -0.84375 8.265625 -0.71875 C 8.328125 -0.601562 8.429688 -0.546875 8.578125 -0.546875 C 8.691406 -0.546875 8.800781 -0.578125 8.90625 -0.640625 C 9.007812 -0.703125 9.125 -0.773438 9.25 -0.859375 L 9.421875 -0.546875 C 9.171875 -0.328125 8.875 -0.160156 8.53125 -0.046875 C 8.195312 0.0664062 7.820312 0.125 7.40625 0.125 C 6.945312 0.125 6.582031 0.0625 6.3125 -0.0625 C 6.050781 -0.1875 5.859375 -0.359375 5.734375 -0.578125 C 5.617188 -0.804688 5.5625 -1.066406 5.5625 -1.359375 C 5.269531 -0.890625 4.914062 -0.523438 4.5 -0.265625 C 4.082031 -0.00390625 3.578125 0.125 2.984375 0.125 Z M 4.28125 -1.046875 C 4.53125 -1.046875 4.753906 -1.101562 4.953125 -1.21875 C 5.148438 -1.332031 5.34375 -1.523438 5.53125 -1.796875 L 5.53125 -5.5625 C 5.414062 -5.382812 5.257812 -5.21875 5.0625 -5.0625 C 4.875 -4.914062 4.664062 -4.765625 4.4375 -4.609375 C 4.21875 -4.460938 4.007812 -4.296875 3.8125 -4.109375 C 3.613281 -3.929688 3.453125 -3.707031 3.328125 -3.4375 C 3.203125 -3.164062 3.140625 -2.84375 3.140625 -2.46875 C 3.140625 -1.988281 3.242188 -1.628906 3.453125 -1.390625 C 3.660156 -1.160156 3.9375 -1.046875 4.28125 -1.046875 Z M 4.28125 -1.046875 "/></g></g><g style="fill:#ffffff;fill-opacity:1;"><g transform="translate(66.24268, 18.142228)"><path style="stroke:none" d="M 6.765625 -9.75 C 7.148438 -9.75 7.460938 -9.664062 7.703125 -9.5 C 7.953125 -9.34375 8.132812 -9.132812 8.25 -8.875 C 8.375 -8.613281 8.4375 -8.34375 8.4375 -8.0625 C 8.4375 -7.613281 8.300781 -7.242188 8.03125 -6.953125 C 7.769531 -6.660156 7.425781 -6.515625 7 -6.515625 C 6.570312 -6.515625 6.238281 -6.625 6 -6.84375 C 5.757812 -7.0625 5.640625 -7.347656 5.640625 -7.703125 C 5.640625 -8.046875 5.710938 -8.328125 5.859375 -8.546875 C 6.015625 -8.773438 6.210938 -8.96875 6.453125 -9.125 C 6.273438 -9.175781 6.101562 -9.171875 5.9375 -9.109375 C 5.707031 -9.078125 5.488281 -8.984375 5.28125 -8.828125 C 5.070312 -8.671875 4.890625 -8.476562 4.734375 -8.25 C 4.585938 -8.03125 4.472656 -7.785156 4.390625 -7.515625 C 4.304688 -7.253906 4.265625 -7.003906 4.265625 -6.765625 L 4.265625 -1.890625 C 4.265625 -1.304688 4.40625 -0.910156 4.6875 -0.703125 C 4.976562 -0.492188 5.410156 -0.390625 5.984375 -0.390625 L 5.984375 0 C 5.703125 -0.0078125 5.289062 -0.0234375 4.75 -0.046875 C 4.21875 -0.0664062 3.65625 -0.078125 3.0625 -0.078125 C 2.570312 -0.078125 2.078125 -0.0664062 1.578125 -0.046875 C 1.078125 -0.0234375 0.695312 -0.0078125 0.4375 0 L 0.4375 -0.390625 C 0.863281 -0.390625 1.164062 -0.476562 1.34375 -0.65625 C 1.519531 -0.84375 1.609375 -1.191406 1.609375 -1.703125 L 1.609375 -7.5 C 1.609375 -8.050781 1.523438 -8.457031 1.359375 -8.71875 C 1.203125 -8.976562 0.894531 -9.109375 0.4375 -9.109375 L 0.4375 -9.5 C 0.832031 -9.457031 1.210938 -9.4375 1.578125 -9.4375 C 2.097656 -9.4375 2.578125 -9.457031 3.015625 -9.5 C 3.460938 -9.550781 3.878906 -9.617188 4.265625 -9.703125 L 4.265625 -8 C 4.410156 -8.320312 4.601562 -8.617188 4.84375 -8.890625 C 5.09375 -9.160156 5.375 -9.367188 5.6875 -9.515625 C 6.007812 -9.671875 6.367188 -9.75 6.765625 -9.75 Z M 6.765625 -9.75 "/></g></g><g style="fill:#ffffff;fill-opacity:1;"><g transform="translate(74.343853, 18.142228)"><path style="stroke:none" d="M 4.171875 -14.390625 L 4.171875 -1.703125 C 4.171875 -1.191406 4.253906 -0.84375 4.421875 -0.65625 C 4.585938 -0.476562 4.875 -0.390625 5.28125 -0.390625 L 5.28125 0 C 5.039062 -0.0078125 4.695312 -0.0234375 4.25 -0.046875 C 3.800781 -0.0664062 3.347656 -0.078125 2.890625 -0.078125 C 2.410156 -0.078125 1.925781 -0.0664062 1.4375 -0.046875 C 0.957031 -0.0234375 0.59375 -0.0078125 0.34375 0 L 0.34375 -0.390625 C 0.78125 -0.390625 1.085938 -0.476562 1.265625 -0.65625 C 1.441406 -0.84375 1.53125 -1.191406 1.53125 -1.703125 L 1.53125 -12.1875 C 1.53125 -12.738281 1.445312 -13.144531 1.28125 -13.40625 C 1.113281 -13.664062 0.800781 -13.796875 0.34375 -13.796875 L 0.34375 -14.1875 C 0.738281 -14.144531 1.117188 -14.125 1.484375 -14.125 C 1.984375 -14.125 2.457031 -14.144531 2.90625 -14.1875 C 3.363281 -14.238281 3.785156 -14.304688 4.171875 -14.390625 Z M 10.15625 -9.5 L 10.15625 -9.125 C 9.78125 -9.050781 9.398438 -8.890625 9.015625 -8.640625 C 8.640625 -8.398438 8.253906 -8.09375 7.859375 -7.71875 L 6.453125 -6.25 L 6.640625 -6.59375 L 9.78125 -1.34375 C 9.914062 -1.125 10.054688 -0.925781 10.203125 -0.75 C 10.347656 -0.582031 10.523438 -0.460938 10.734375 -0.390625 L 10.734375 0 C 10.546875 -0.0078125 10.269531 -0.0234375 9.90625 -0.046875 C 9.539062 -0.0664062 9.171875 -0.078125 8.796875 -0.078125 C 8.347656 -0.078125 7.894531 -0.0664062 7.4375 -0.046875 C 6.988281 -0.0234375 6.65625 -0.0078125 6.4375 0 L 6.4375 -0.390625 C 6.675781 -0.390625 6.835938 -0.445312 6.921875 -0.5625 C 7.015625 -0.675781 7.003906 -0.828125 6.890625 -1.015625 L 5.078125 -4.296875 C 4.921875 -4.535156 4.769531 -4.6875 4.625 -4.75 C 4.488281 -4.8125 4.304688 -4.851562 4.078125 -4.875 L 4.078125 -5.21875 C 4.335938 -5.238281 4.5625 -5.28125 4.75 -5.34375 C 4.9375 -5.40625 5.113281 -5.523438 5.28125 -5.703125 L 6.671875 -7.0625 C 7.085938 -7.445312 7.296875 -7.789062 7.296875 -8.09375 C 7.296875 -8.40625 7.160156 -8.648438 6.890625 -8.828125 C 6.628906 -9.015625 6.285156 -9.113281 5.859375 -9.125 L 5.859375 -9.5 C 6.203125 -9.488281 6.578125 -9.472656 6.984375 -9.453125 C 7.390625 -9.441406 7.734375 -9.4375 8.015625 -9.4375 C 8.253906 -9.4375 8.507812 -9.441406 8.78125 -9.453125 C 9.0625 -9.460938 9.320312 -9.46875 9.5625 -9.46875 C 9.8125 -9.476562 10.007812 -9.488281 10.15625 -9.5 Z M 10.15625 -9.5 "/></g></g><g style="fill:#ffffff;fill-opacity:1;"><g transform="translate(84.649432, 18.142228)"><path style="stroke:none" d="M 4.1875 -14.390625 L 4.1875 -1.703125 C 4.1875 -1.191406 4.273438 -0.84375 4.453125 -0.65625 C 4.628906 -0.476562 4.929688 -0.390625 5.359375 -0.390625 L 5.359375 0 C 5.128906 -0.0078125 4.78125 -0.0234375 4.3125 -0.046875 C 3.851562 -0.0664062 3.382812 -0.078125 2.90625 -0.078125 C 2.425781 -0.078125 1.941406 -0.0664062 1.453125 -0.046875 C 0.972656 -0.0234375 0.613281 -0.0078125 0.375 0 L 0.375 -0.390625 C 0.800781 -0.390625 1.101562 -0.476562 1.28125 -0.65625 C 1.457031 -0.84375 1.546875 -1.191406 1.546875 -1.703125 L 1.546875 -12.1875 C 1.546875 -12.738281 1.460938 -13.144531 1.296875 -13.40625 C 1.128906 -13.664062 0.820312 -13.796875 0.375 -13.796875 L 0.375 -14.1875 C 0.757812 -14.144531 1.132812 -14.125 1.5 -14.125 C 2.007812 -14.125 2.488281 -14.144531 2.9375 -14.1875 C 3.394531 -14.238281 3.8125 -14.304688 4.1875 -14.390625 Z M 4.1875 -14.390625 "/></g></g><g style="fill:#ffffff;fill-opacity:1;"><g transform="translate(90.178813, 18.142228)"><path style="stroke:none" d="M 5.1875 -9.75 C 6.257812 -9.75 7.101562 -9.429688 7.71875 -8.796875 C 8.332031 -8.160156 8.640625 -7.117188 8.640625 -5.671875 L 2.59375 -5.671875 L 2.546875 -6.03125 L 6.328125 -6.03125 C 6.335938 -6.625 6.296875 -7.175781 6.203125 -7.6875 C 6.117188 -8.195312 5.984375 -8.601562 5.796875 -8.90625 C 5.617188 -9.21875 5.378906 -9.375 5.078125 -9.375 C 4.640625 -9.375 4.269531 -9.101562 3.96875 -8.5625 C 3.675781 -8.019531 3.5 -7.125 3.4375 -5.875 L 3.484375 -5.765625 C 3.472656 -5.617188 3.460938 -5.46875 3.453125 -5.3125 C 3.453125 -5.15625 3.453125 -4.988281 3.453125 -4.8125 C 3.453125 -3.96875 3.570312 -3.28125 3.8125 -2.75 C 4.050781 -2.226562 4.351562 -1.847656 4.71875 -1.609375 C 5.09375 -1.367188 5.46875 -1.25 5.84375 -1.25 C 6.101562 -1.25 6.367188 -1.285156 6.640625 -1.359375 C 6.921875 -1.441406 7.203125 -1.585938 7.484375 -1.796875 C 7.765625 -2.015625 8.023438 -2.320312 8.265625 -2.71875 L 8.59375 -2.609375 C 8.445312 -2.140625 8.210938 -1.6875 7.890625 -1.25 C 7.578125 -0.8125 7.175781 -0.453125 6.6875 -0.171875 C 6.195312 0.109375 5.609375 0.25 4.921875 0.25 C 4.085938 0.25 3.351562 0.0703125 2.71875 -0.28125 C 2.082031 -0.632812 1.582031 -1.171875 1.21875 -1.890625 C 0.863281 -2.617188 0.6875 -3.539062 0.6875 -4.65625 C 0.6875 -5.789062 0.878906 -6.738281 1.265625 -7.5 C 1.648438 -8.257812 2.179688 -8.820312 2.859375 -9.1875 C 3.535156 -9.5625 4.3125 -9.75 5.1875 -9.75 Z M 5.1875 -9.75 "/></g></g><g style="fill:#ffffff;fill-opacity:1;"><g transform="translate(99.437319, 18.142228)"><path style="stroke:none" d="M 4.078125 -9.75 C 4.585938 -9.75 5.035156 -9.6875 5.421875 -9.5625 C 5.816406 -9.4375 6.097656 -9.3125 6.265625 -9.1875 C 6.679688 -8.90625 6.9375 -9.085938 7.03125 -9.734375 L 7.421875 -9.734375 C 7.398438 -9.390625 7.378906 -8.96875 7.359375 -8.46875 C 7.347656 -7.976562 7.34375 -7.320312 7.34375 -6.5 L 6.96875 -6.5 C 6.90625 -6.957031 6.785156 -7.40625 6.609375 -7.84375 C 6.441406 -8.28125 6.195312 -8.640625 5.875 -8.921875 C 5.550781 -9.210938 5.128906 -9.359375 4.609375 -9.359375 C 4.253906 -9.359375 3.953125 -9.253906 3.703125 -9.046875 C 3.460938 -8.847656 3.34375 -8.554688 3.34375 -8.171875 C 3.34375 -7.804688 3.453125 -7.484375 3.671875 -7.203125 C 3.890625 -6.929688 4.171875 -6.671875 4.515625 -6.421875 C 4.867188 -6.171875 5.238281 -5.90625 5.625 -5.625 C 6.03125 -5.3125 6.394531 -5.003906 6.71875 -4.703125 C 7.050781 -4.410156 7.316406 -4.085938 7.515625 -3.734375 C 7.710938 -3.378906 7.8125 -2.957031 7.8125 -2.46875 C 7.8125 -1.914062 7.648438 -1.429688 7.328125 -1.015625 C 7.015625 -0.609375 6.597656 -0.296875 6.078125 -0.078125 C 5.554688 0.140625 4.976562 0.25 4.34375 0.25 C 3.96875 0.25 3.632812 0.210938 3.34375 0.140625 C 3.0625 0.0664062 2.816406 -0.0195312 2.609375 -0.125 C 2.453125 -0.195312 2.300781 -0.265625 2.15625 -0.328125 C 2.019531 -0.398438 1.890625 -0.460938 1.765625 -0.515625 C 1.640625 -0.546875 1.53125 -0.5 1.4375 -0.375 C 1.34375 -0.257812 1.273438 -0.09375 1.234375 0.125 L 0.84375 0.125 C 0.863281 -0.257812 0.878906 -0.734375 0.890625 -1.296875 C 0.910156 -1.867188 0.921875 -2.617188 0.921875 -3.546875 L 1.296875 -3.546875 C 1.378906 -2.878906 1.515625 -2.289062 1.703125 -1.78125 C 1.898438 -1.28125 2.164062 -0.882812 2.5 -0.59375 C 2.84375 -0.3125 3.269531 -0.171875 3.78125 -0.171875 C 3.988281 -0.171875 4.191406 -0.210938 4.390625 -0.296875 C 4.585938 -0.378906 4.75 -0.519531 4.875 -0.71875 C 5.007812 -0.914062 5.078125 -1.164062 5.078125 -1.46875 C 5.078125 -2.007812 4.898438 -2.457031 4.546875 -2.8125 C 4.203125 -3.164062 3.757812 -3.550781 3.21875 -3.96875 C 2.820312 -4.289062 2.445312 -4.609375 2.09375 -4.921875 C 1.75 -5.234375 1.46875 -5.570312 1.25 -5.9375 C 1.03125 -6.3125 0.921875 -6.738281 0.921875 -7.21875 C 0.921875 -7.769531 1.066406 -8.234375 1.359375 -8.609375 C 1.648438 -8.992188 2.035156 -9.28125 2.515625 -9.46875 C 3.003906 -9.65625 3.523438 -9.75 4.078125 -9.75 Z M 4.078125 -9.75 "/></g></g><g style="fill:#ffc2e7;fill-opacity:1;"><g transform="translate(36.384066, 27.790101)"><path style="stroke:none" d="M 3.703125 -5.375 C 4.234375 -5.375 4.671875 -5.15625 5.015625 -4.71875 C 5.367188 -4.289062 5.546875 -3.632812 5.546875 -2.75 C 5.546875 -2.050781 5.4375 -1.488281 5.21875 -1.0625 C 5.007812 -0.632812 4.726562 -0.328125 4.375 -0.140625 C 4.03125 0.046875 3.644531 0.140625 3.21875 0.140625 C 2.945312 0.140625 2.691406 0.09375 2.453125 0 C 2.222656 -0.09375 2.019531 -0.25 1.84375 -0.46875 L 1.984375 -0.515625 C 2.109375 -0.367188 2.253906 -0.257812 2.421875 -0.1875 C 2.585938 -0.113281 2.75 -0.078125 2.90625 -0.078125 C 3.28125 -0.078125 3.554688 -0.285156 3.734375 -0.703125 C 3.921875 -1.117188 4.015625 -1.753906 4.015625 -2.609375 C 4.015625 -3.191406 3.976562 -3.648438 3.90625 -3.984375 C 3.832031 -4.328125 3.726562 -4.570312 3.59375 -4.71875 C 3.457031 -4.863281 3.296875 -4.9375 3.109375 -4.9375 C 2.878906 -4.9375 2.664062 -4.835938 2.46875 -4.640625 C 2.269531 -4.453125 2.160156 -4.1875 2.140625 -3.84375 L 2.078125 -4.203125 C 2.203125 -4.578125 2.410156 -4.863281 2.703125 -5.0625 C 2.992188 -5.269531 3.328125 -5.375 3.703125 -5.375 Z M 2.15625 -7.90625 L 2.15625 -0.203125 C 1.988281 -0.234375 1.816406 -0.234375 1.640625 -0.203125 C 1.472656 -0.171875 1.3125 -0.125 1.15625 -0.0625 C 1.007812 0 0.882812 0.0703125 0.78125 0.15625 L 0.640625 0.078125 C 0.660156 -0.0234375 0.675781 -0.125 0.6875 -0.21875 C 0.695312 -0.3125 0.703125 -0.40625 0.703125 -0.5 L 0.703125 -6.6875 C 0.703125 -6.988281 0.65625 -7.210938 0.5625 -7.359375 C 0.476562 -7.503906 0.3125 -7.578125 0.0625 -7.578125 L 0.0625 -7.796875 C 0.28125 -7.773438 0.488281 -7.765625 0.6875 -7.765625 C 0.96875 -7.765625 1.226562 -7.773438 1.46875 -7.796875 C 1.71875 -7.816406 1.945312 -7.851562 2.15625 -7.90625 Z M 2.15625 -7.90625 "/></g></g><g style="fill:#ffc2e7;fill-opacity:1;"><g transform="translate(43.443379, 27.790101)"><path style="stroke:none" d="M 5.1875 -5.234375 L 5.1875 -5.03125 C 5.0625 -4.988281 4.941406 -4.90625 4.828125 -4.78125 C 4.710938 -4.65625 4.597656 -4.445312 4.484375 -4.15625 L 3.0625 -0.15625 L 2.6875 0.5625 L 0.484375 -4.453125 C 0.367188 -4.710938 0.253906 -4.867188 0.140625 -4.921875 C 0.0351562 -4.984375 -0.0546875 -5.015625 -0.140625 -5.015625 L -0.140625 -5.234375 C 0.078125 -5.210938 0.304688 -5.195312 0.546875 -5.1875 C 0.785156 -5.175781 1.019531 -5.171875 1.25 -5.171875 C 1.519531 -5.171875 1.769531 -5.175781 2 -5.1875 C 2.226562 -5.195312 2.445312 -5.210938 2.65625 -5.234375 L 2.65625 -5.015625 C 2.519531 -5.015625 2.390625 -5.003906 2.265625 -4.984375 C 2.148438 -4.972656 2.070312 -4.925781 2.03125 -4.84375 C 1.988281 -4.769531 2.003906 -4.640625 2.078125 -4.453125 L 3.359375 -1.375 L 3.265625 -1.3125 L 4.015625 -3.40625 C 4.140625 -3.769531 4.191406 -4.066406 4.171875 -4.296875 C 4.148438 -4.535156 4.078125 -4.710938 3.953125 -4.828125 C 3.828125 -4.941406 3.648438 -5.007812 3.421875 -5.03125 L 3.421875 -5.234375 C 3.535156 -5.222656 3.648438 -5.210938 3.765625 -5.203125 C 3.878906 -5.203125 3.992188 -5.203125 4.109375 -5.203125 C 4.222656 -5.203125 4.320312 -5.203125 4.40625 -5.203125 C 4.539062 -5.203125 4.679688 -5.203125 4.828125 -5.203125 C 4.984375 -5.210938 5.101562 -5.222656 5.1875 -5.234375 Z M 3.0625 -0.15625 L 2.671875 0.9375 C 2.609375 1.101562 2.539062 1.242188 2.46875 1.359375 C 2.394531 1.472656 2.316406 1.566406 2.234375 1.640625 C 2.140625 1.722656 2.015625 1.785156 1.859375 1.828125 C 1.710938 1.878906 1.546875 1.90625 1.359375 1.90625 C 1.191406 1.90625 1.019531 1.875 0.84375 1.8125 C 0.675781 1.757812 0.535156 1.671875 0.421875 1.546875 C 0.304688 1.429688 0.25 1.28125 0.25 1.09375 C 0.25 0.882812 0.320312 0.71875 0.46875 0.59375 C 0.625 0.46875 0.820312 0.40625 1.0625 0.40625 C 1.28125 0.40625 1.457031 0.457031 1.59375 0.5625 C 1.738281 0.675781 1.8125 0.835938 1.8125 1.046875 C 1.8125 1.179688 1.769531 1.304688 1.6875 1.421875 C 1.601562 1.546875 1.476562 1.640625 1.3125 1.703125 C 1.34375 1.703125 1.378906 1.703125 1.421875 1.703125 C 1.472656 1.703125 1.515625 1.703125 1.546875 1.703125 C 1.742188 1.703125 1.921875 1.640625 2.078125 1.515625 C 2.234375 1.390625 2.363281 1.1875 2.46875 0.90625 L 2.828125 -0.125 Z M 3.0625 -0.15625 "/></g></g><g style="fill:#ffc2e7;fill-opacity:1;"><g transform="translate(49.673384, 27.790101)"><path style="stroke:none" d=""/></g></g><g style="fill:#ffc2e7;fill-opacity:1;"><g transform="translate(53.294116, 27.790101)"><path style="stroke:none" d="M -0.234375 1.90625 L -0.234375 1.703125 C 0.0351562 1.671875 0.265625 1.585938 0.453125 1.453125 C 0.640625 1.328125 0.785156 1.101562 0.890625 0.78125 C 0.992188 0.46875 1.046875 0.0234375 1.046875 -0.546875 L 1.046875 -6.078125 C 1.046875 -6.328125 1.023438 -6.507812 0.984375 -6.625 C 0.953125 -6.75 0.878906 -6.832031 0.765625 -6.875 C 0.660156 -6.914062 0.5 -6.941406 0.28125 -6.953125 L 0.28125 -7.15625 C 0.445312 -7.144531 0.664062 -7.132812 0.9375 -7.125 C 1.21875 -7.125 1.507812 -7.125 1.8125 -7.125 C 2.113281 -7.125 2.40625 -7.125 2.6875 -7.125 C 2.976562 -7.132812 3.21875 -7.144531 3.40625 -7.15625 L 3.40625 -6.953125 C 3.195312 -6.941406 3.035156 -6.914062 2.921875 -6.875 C 2.816406 -6.832031 2.742188 -6.75 2.703125 -6.625 C 2.671875 -6.507812 2.65625 -6.328125 2.65625 -6.078125 L 2.65625 -2.390625 C 2.65625 -2.109375 2.65625 -1.804688 2.65625 -1.484375 C 2.65625 -1.171875 2.640625 -0.859375 2.609375 -0.546875 C 2.585938 -0.242188 2.546875 0.0195312 2.484375 0.25 C 2.347656 0.71875 2.054688 1.109375 1.609375 1.421875 C 1.160156 1.742188 0.546875 1.90625 -0.234375 1.90625 Z M -0.234375 1.90625 "/></g></g><g style="fill:#ffc2e7;fill-opacity:1;"><g transform="translate(58.088007, 27.790101)"><path style="stroke:none" d="M 5.28125 -5.34375 L 5.28125 -1.109375 C 5.28125 -0.796875 5.328125 -0.566406 5.421875 -0.421875 C 5.515625 -0.285156 5.679688 -0.21875 5.921875 -0.21875 L 5.921875 0 C 5.710938 -0.0195312 5.503906 -0.03125 5.296875 -0.03125 C 5.015625 -0.03125 4.75 -0.0195312 4.5 0 C 4.257812 0.0195312 4.035156 0.0546875 3.828125 0.109375 L 3.828125 -0.796875 C 3.660156 -0.460938 3.429688 -0.222656 3.140625 -0.078125 C 2.859375 0.0664062 2.539062 0.140625 2.1875 0.140625 C 1.90625 0.140625 1.675781 0.101562 1.5 0.03125 C 1.332031 -0.0390625 1.195312 -0.132812 1.09375 -0.25 C 0.976562 -0.375 0.894531 -0.539062 0.84375 -0.75 C 0.800781 -0.96875 0.78125 -1.238281 0.78125 -1.5625 L 0.78125 -4.125 C 0.78125 -4.425781 0.734375 -4.648438 0.640625 -4.796875 C 0.546875 -4.941406 0.375 -5.015625 0.125 -5.015625 L 0.125 -5.234375 C 0.34375 -5.210938 0.554688 -5.203125 0.765625 -5.203125 C 1.046875 -5.203125 1.304688 -5.210938 1.546875 -5.234375 C 1.796875 -5.253906 2.023438 -5.289062 2.234375 -5.34375 L 2.234375 -1.15625 C 2.234375 -0.988281 2.25 -0.835938 2.28125 -0.703125 C 2.3125 -0.578125 2.367188 -0.476562 2.453125 -0.40625 C 2.546875 -0.332031 2.675781 -0.296875 2.84375 -0.296875 C 3.019531 -0.296875 3.179688 -0.347656 3.328125 -0.453125 C 3.472656 -0.554688 3.59375 -0.695312 3.6875 -0.875 C 3.78125 -1.050781 3.828125 -1.25 3.828125 -1.46875 L 3.828125 -4.125 C 3.828125 -4.425781 3.78125 -4.648438 3.6875 -4.796875 C 3.59375 -4.941406 3.421875 -5.015625 3.171875 -5.015625 L 3.171875 -5.234375 C 3.390625 -5.210938 3.597656 -5.203125 3.796875 -5.203125 C 4.078125 -5.203125 4.34375 -5.210938 4.59375 -5.234375 C 4.84375 -5.253906 5.070312 -5.289062 5.28125 -5.34375 Z M 5.28125 -5.34375 "/></g></g><g style="fill:#ffc2e7;fill-opacity:1;"><g transform="translate(65.48107, 27.790101)"><path style="stroke:none" d="M 4 -5.375 C 4.28125 -5.375 4.507812 -5.335938 4.6875 -5.265625 C 4.875 -5.191406 5.015625 -5.09375 5.109375 -4.96875 C 5.222656 -4.84375 5.300781 -4.675781 5.34375 -4.46875 C 5.394531 -4.269531 5.421875 -4 5.421875 -3.65625 L 5.421875 -0.9375 C 5.421875 -0.65625 5.46875 -0.460938 5.5625 -0.359375 C 5.664062 -0.265625 5.835938 -0.21875 6.078125 -0.21875 L 6.078125 0 C 5.953125 -0.0078125 5.757812 -0.0195312 5.5 -0.03125 C 5.238281 -0.0390625 4.984375 -0.046875 4.734375 -0.046875 C 4.484375 -0.046875 4.234375 -0.0390625 3.984375 -0.03125 C 3.742188 -0.0195312 3.554688 -0.0078125 3.421875 0 L 3.421875 -0.21875 C 3.628906 -0.21875 3.769531 -0.265625 3.84375 -0.359375 C 3.925781 -0.460938 3.96875 -0.65625 3.96875 -0.9375 L 3.96875 -4.078125 C 3.96875 -4.253906 3.953125 -4.40625 3.921875 -4.53125 C 3.890625 -4.65625 3.828125 -4.75 3.734375 -4.8125 C 3.648438 -4.882812 3.519531 -4.921875 3.34375 -4.921875 C 3.164062 -4.921875 3 -4.867188 2.84375 -4.765625 C 2.695312 -4.671875 2.578125 -4.53125 2.484375 -4.34375 C 2.390625 -4.164062 2.34375 -3.96875 2.34375 -3.75 L 2.34375 -0.9375 C 2.34375 -0.65625 2.382812 -0.460938 2.46875 -0.359375 C 2.550781 -0.265625 2.691406 -0.21875 2.890625 -0.21875 L 2.890625 0 C 2.765625 -0.0078125 2.585938 -0.0195312 2.359375 -0.03125 C 2.128906 -0.0390625 1.890625 -0.046875 1.640625 -0.046875 C 1.378906 -0.046875 1.113281 -0.0390625 0.84375 -0.03125 C 0.570312 -0.0195312 0.375 -0.0078125 0.25 0 L 0.25 -0.21875 C 0.476562 -0.21875 0.640625 -0.265625 0.734375 -0.359375 C 0.835938 -0.460938 0.890625 -0.65625 0.890625 -0.9375 L 0.890625 -4.125 C 0.890625 -4.425781 0.84375 -4.648438 0.75 -4.796875 C 0.65625 -4.941406 0.488281 -5.015625 0.25 -5.015625 L 0.25 -5.234375 C 0.457031 -5.210938 0.664062 -5.203125 0.875 -5.203125 C 1.15625 -5.203125 1.414062 -5.210938 1.65625 -5.234375 C 1.90625 -5.253906 2.132812 -5.289062 2.34375 -5.34375 L 2.34375 -4.421875 C 2.507812 -4.765625 2.738281 -5.007812 3.03125 -5.15625 C 3.320312 -5.300781 3.644531 -5.375 4 -5.375 Z M 4 -5.375 "/></g></g><g style="fill:#ffc2e7;fill-opacity:1;"><g transform="translate(72.955043, 27.790101)"><path style="stroke:none" d="M 2.84375 -5.375 C 3.4375 -5.375 3.898438 -5.195312 4.234375 -4.84375 C 4.578125 -4.488281 4.75 -3.914062 4.75 -3.125 L 1.421875 -3.125 L 1.40625 -3.3125 L 3.484375 -3.3125 C 3.484375 -3.644531 3.457031 -3.953125 3.40625 -4.234375 C 3.363281 -4.515625 3.289062 -4.738281 3.1875 -4.90625 C 3.09375 -5.070312 2.960938 -5.15625 2.796875 -5.15625 C 2.554688 -5.15625 2.351562 -5.003906 2.1875 -4.703125 C 2.019531 -4.410156 1.921875 -3.921875 1.890625 -3.234375 L 1.921875 -3.171875 C 1.910156 -3.085938 1.90625 -3.003906 1.90625 -2.921875 C 1.90625 -2.835938 1.90625 -2.75 1.90625 -2.65625 C 1.90625 -2.1875 1.96875 -1.804688 2.09375 -1.515625 C 2.226562 -1.222656 2.394531 -1.007812 2.59375 -0.875 C 2.800781 -0.75 3.007812 -0.6875 3.21875 -0.6875 C 3.351562 -0.6875 3.492188 -0.707031 3.640625 -0.75 C 3.796875 -0.789062 3.953125 -0.867188 4.109375 -0.984375 C 4.265625 -1.109375 4.410156 -1.28125 4.546875 -1.5 L 4.734375 -1.4375 C 4.648438 -1.175781 4.519531 -0.925781 4.34375 -0.6875 C 4.164062 -0.445312 3.941406 -0.25 3.671875 -0.09375 C 3.410156 0.0625 3.085938 0.140625 2.703125 0.140625 C 2.242188 0.140625 1.835938 0.046875 1.484375 -0.140625 C 1.140625 -0.335938 0.867188 -0.632812 0.671875 -1.03125 C 0.472656 -1.4375 0.375 -1.945312 0.375 -2.5625 C 0.375 -3.1875 0.476562 -3.707031 0.6875 -4.125 C 0.90625 -4.539062 1.203125 -4.851562 1.578125 -5.0625 C 1.953125 -5.269531 2.375 -5.375 2.84375 -5.375 Z M 2.84375 -5.375 "/></g></g><g style="fill:#ffc2e7;fill-opacity:1;"><g transform="translate(79.316527, 27.790101)"><path style="stroke:none" d="M 2.296875 -6.890625 L 2.296875 -5.234375 L 3.484375 -5.234375 L 3.484375 -5.03125 L 2.296875 -5.03125 L 2.296875 -0.9375 C 2.296875 -0.738281 2.332031 -0.597656 2.40625 -0.515625 C 2.476562 -0.429688 2.585938 -0.390625 2.734375 -0.390625 C 2.859375 -0.390625 2.976562 -0.429688 3.09375 -0.515625 C 3.21875 -0.609375 3.328125 -0.765625 3.421875 -0.984375 L 3.59375 -0.90625 C 3.488281 -0.59375 3.328125 -0.335938 3.109375 -0.140625 C 2.890625 0.046875 2.59375 0.140625 2.21875 0.140625 C 1.988281 0.140625 1.789062 0.109375 1.625 0.046875 C 1.457031 -0.00390625 1.316406 -0.0859375 1.203125 -0.203125 C 1.054688 -0.347656 0.957031 -0.53125 0.90625 -0.75 C 0.863281 -0.96875 0.84375 -1.253906 0.84375 -1.609375 L 0.84375 -5.03125 L -0.015625 -5.03125 L -0.015625 -5.234375 L 0.84375 -5.234375 L 0.84375 -6.5625 C 1.125 -6.5625 1.382812 -6.585938 1.625 -6.640625 C 1.863281 -6.691406 2.085938 -6.773438 2.296875 -6.890625 Z M 2.296875 -6.890625 "/></g></g><g style="fill:#ffc2e7;fill-opacity:1;"><g transform="translate(84.140763, 27.790101)"><path style="stroke:none" d="M 3.71875 -5.375 C 3.9375 -5.375 4.113281 -5.328125 4.25 -5.234375 C 4.382812 -5.140625 4.484375 -5.019531 4.546875 -4.875 C 4.609375 -4.738281 4.640625 -4.59375 4.640625 -4.4375 C 4.640625 -4.1875 4.566406 -3.984375 4.421875 -3.828125 C 4.273438 -3.671875 4.085938 -3.59375 3.859375 -3.59375 C 3.617188 -3.59375 3.429688 -3.648438 3.296875 -3.765625 C 3.171875 -3.878906 3.109375 -4.035156 3.109375 -4.234375 C 3.109375 -4.421875 3.148438 -4.578125 3.234375 -4.703125 C 3.316406 -4.828125 3.421875 -4.9375 3.546875 -5.03125 C 3.453125 -5.050781 3.359375 -5.046875 3.265625 -5.015625 C 3.140625 -4.992188 3.019531 -4.941406 2.90625 -4.859375 C 2.789062 -4.773438 2.691406 -4.671875 2.609375 -4.546875 C 2.523438 -4.421875 2.457031 -4.285156 2.40625 -4.140625 C 2.363281 -3.992188 2.34375 -3.851562 2.34375 -3.71875 L 2.34375 -1.046875 C 2.34375 -0.722656 2.421875 -0.503906 2.578125 -0.390625 C 2.742188 -0.273438 2.984375 -0.21875 3.296875 -0.21875 L 3.296875 0 C 3.140625 -0.0078125 2.910156 -0.0195312 2.609375 -0.03125 C 2.316406 -0.0390625 2.007812 -0.046875 1.6875 -0.046875 C 1.414062 -0.046875 1.140625 -0.0390625 0.859375 -0.03125 C 0.585938 -0.0195312 0.382812 -0.0078125 0.25 0 L 0.25 -0.21875 C 0.476562 -0.21875 0.640625 -0.265625 0.734375 -0.359375 C 0.835938 -0.460938 0.890625 -0.65625 0.890625 -0.9375 L 0.890625 -4.125 C 0.890625 -4.425781 0.84375 -4.648438 0.75 -4.796875 C 0.65625 -4.941406 0.488281 -5.015625 0.25 -5.015625 L 0.25 -5.234375 C 0.457031 -5.210938 0.664062 -5.203125 0.875 -5.203125 C 1.15625 -5.203125 1.414062 -5.210938 1.65625 -5.234375 C 1.90625 -5.253906 2.132812 -5.289062 2.34375 -5.34375 L 2.34375 -4.390625 C 2.425781 -4.578125 2.535156 -4.742188 2.671875 -4.890625 C 2.804688 -5.035156 2.957031 -5.148438 3.125 -5.234375 C 3.300781 -5.328125 3.5 -5.375 3.71875 -5.375 Z M 3.71875 -5.375 "/></g></g><g style="fill:#ffc2e7;fill-opacity:1;"><g transform="translate(90.128051, 27.790101)"><path style="stroke:none" d="M 1.640625 0.078125 C 1.335938 0.078125 1.082031 0.0195312 0.875 -0.09375 C 0.675781 -0.207031 0.53125 -0.359375 0.4375 -0.546875 C 0.34375 -0.742188 0.296875 -0.957031 0.296875 -1.1875 C 0.296875 -1.476562 0.359375 -1.710938 0.484375 -1.890625 C 0.617188 -2.078125 0.789062 -2.226562 1 -2.34375 C 1.207031 -2.457031 1.425781 -2.550781 1.65625 -2.625 C 1.894531 -2.695312 2.117188 -2.769531 2.328125 -2.84375 C 2.546875 -2.914062 2.71875 -3 2.84375 -3.09375 C 2.976562 -3.195312 3.046875 -3.328125 3.046875 -3.484375 L 3.046875 -4.265625 C 3.046875 -4.441406 3.015625 -4.597656 2.953125 -4.734375 C 2.898438 -4.867188 2.8125 -4.972656 2.6875 -5.046875 C 2.570312 -5.128906 2.421875 -5.171875 2.234375 -5.171875 C 2.097656 -5.171875 1.960938 -5.148438 1.828125 -5.109375 C 1.691406 -5.078125 1.582031 -5.015625 1.5 -4.921875 C 1.6875 -4.859375 1.832031 -4.753906 1.9375 -4.609375 C 2.039062 -4.472656 2.09375 -4.316406 2.09375 -4.140625 C 2.09375 -3.910156 2.015625 -3.726562 1.859375 -3.59375 C 1.703125 -3.457031 1.515625 -3.390625 1.296875 -3.390625 C 1.054688 -3.390625 0.875 -3.46875 0.75 -3.625 C 0.625 -3.78125 0.5625 -3.960938 0.5625 -4.171875 C 0.5625 -4.367188 0.609375 -4.53125 0.703125 -4.65625 C 0.796875 -4.789062 0.929688 -4.914062 1.109375 -5.03125 C 1.296875 -5.132812 1.519531 -5.21875 1.78125 -5.28125 C 2.050781 -5.34375 2.34375 -5.375 2.65625 -5.375 C 2.96875 -5.375 3.25 -5.335938 3.5 -5.265625 C 3.75 -5.203125 3.957031 -5.085938 4.125 -4.921875 C 4.28125 -4.765625 4.378906 -4.570312 4.421875 -4.34375 C 4.472656 -4.125 4.5 -3.84375 4.5 -3.5 L 4.5 -0.75 C 4.5 -0.582031 4.515625 -0.460938 4.546875 -0.390625 C 4.578125 -0.328125 4.632812 -0.296875 4.71875 -0.296875 C 4.78125 -0.296875 4.835938 -0.3125 4.890625 -0.34375 C 4.953125 -0.382812 5.015625 -0.425781 5.078125 -0.46875 L 5.1875 -0.296875 C 5.039062 -0.179688 4.875 -0.0859375 4.6875 -0.015625 C 4.507812 0.046875 4.304688 0.078125 4.078125 0.078125 C 3.828125 0.078125 3.625 0.0390625 3.46875 -0.03125 C 3.320312 -0.101562 3.21875 -0.195312 3.15625 -0.3125 C 3.09375 -0.4375 3.0625 -0.582031 3.0625 -0.75 C 2.90625 -0.488281 2.710938 -0.285156 2.484375 -0.140625 C 2.253906 0.00390625 1.972656 0.078125 1.640625 0.078125 Z M 2.359375 -0.578125 C 2.492188 -0.578125 2.613281 -0.609375 2.71875 -0.671875 C 2.832031 -0.734375 2.941406 -0.835938 3.046875 -0.984375 L 3.046875 -3.0625 C 2.984375 -2.957031 2.894531 -2.863281 2.78125 -2.78125 C 2.675781 -2.707031 2.5625 -2.628906 2.4375 -2.546875 C 2.320312 -2.460938 2.207031 -2.367188 2.09375 -2.265625 C 1.988281 -2.160156 1.898438 -2.035156 1.828125 -1.890625 C 1.765625 -1.742188 1.734375 -1.566406 1.734375 -1.359375 C 1.734375 -1.085938 1.789062 -0.890625 1.90625 -0.765625 C 2.019531 -0.640625 2.171875 -0.578125 2.359375 -0.578125 Z M 2.359375 -0.578125 "/></g></g><g style="fill:#ffc2e7;fill-opacity:1;"><g transform="translate(96.631129, 27.790101)"><path style="stroke:none" d="M 1.5625 -7.828125 C 1.84375 -7.828125 2.066406 -7.757812 2.234375 -7.625 C 2.398438 -7.488281 2.484375 -7.300781 2.484375 -7.0625 C 2.484375 -6.8125 2.398438 -6.617188 2.234375 -6.484375 C 2.066406 -6.347656 1.84375 -6.28125 1.5625 -6.28125 C 1.28125 -6.28125 1.054688 -6.347656 0.890625 -6.484375 C 0.722656 -6.617188 0.640625 -6.8125 0.640625 -7.0625 C 0.640625 -7.300781 0.722656 -7.488281 0.890625 -7.625 C 1.054688 -7.757812 1.28125 -7.828125 1.5625 -7.828125 Z M 2.34375 -5.34375 L 2.34375 -0.9375 C 2.34375 -0.65625 2.390625 -0.460938 2.484375 -0.359375 C 2.585938 -0.265625 2.757812 -0.21875 3 -0.21875 L 3 0 C 2.875 -0.0078125 2.679688 -0.0195312 2.421875 -0.03125 C 2.171875 -0.0390625 1.910156 -0.046875 1.640625 -0.046875 C 1.378906 -0.046875 1.113281 -0.0390625 0.84375 -0.03125 C 0.570312 -0.0195312 0.375 -0.0078125 0.25 0 L 0.25 -0.21875 C 0.476562 -0.21875 0.640625 -0.265625 0.734375 -0.359375 C 0.835938 -0.460938 0.890625 -0.65625 0.890625 -0.9375 L 0.890625 -4.125 C 0.890625 -4.425781 0.84375 -4.648438 0.75 -4.796875 C 0.65625 -4.941406 0.488281 -5.015625 0.25 -5.015625 L 0.25 -5.234375 C 0.457031 -5.210938 0.664062 -5.203125 0.875 -5.203125 C 1.15625 -5.203125 1.414062 -5.210938 1.65625 -5.234375 C 1.90625 -5.253906 2.132812 -5.289062 2.34375 -5.34375 Z M 2.34375 -5.34375 "/></g></g><g style="fill:#ffc2e7;fill-opacity:1;"><g transform="translate(101.081168, 27.790101)"><path style="stroke:none" d="M 4 -5.375 C 4.28125 -5.375 4.507812 -5.335938 4.6875 -5.265625 C 4.875 -5.191406 5.015625 -5.09375 5.109375 -4.96875 C 5.222656 -4.84375 5.300781 -4.675781 5.34375 -4.46875 C 5.394531 -4.269531 5.421875 -4 5.421875 -3.65625 L 5.421875 -0.9375 C 5.421875 -0.65625 5.46875 -0.460938 5.5625 -0.359375 C 5.664062 -0.265625 5.835938 -0.21875 6.078125 -0.21875 L 6.078125 0 C 5.953125 -0.0078125 5.757812 -0.0195312 5.5 -0.03125 C 5.238281 -0.0390625 4.984375 -0.046875 4.734375 -0.046875 C 4.484375 -0.046875 4.234375 -0.0390625 3.984375 -0.03125 C 3.742188 -0.0195312 3.554688 -0.0078125 3.421875 0 L 3.421875 -0.21875 C 3.628906 -0.21875 3.769531 -0.265625 3.84375 -0.359375 C 3.925781 -0.460938 3.96875 -0.65625 3.96875 -0.9375 L 3.96875 -4.078125 C 3.96875 -4.253906 3.953125 -4.40625 3.921875 -4.53125 C 3.890625 -4.65625 3.828125 -4.75 3.734375 -4.8125 C 3.648438 -4.882812 3.519531 -4.921875 3.34375 -4.921875 C 3.164062 -4.921875 3 -4.867188 2.84375 -4.765625 C 2.695312 -4.671875 2.578125 -4.53125 2.484375 -4.34375 C 2.390625 -4.164062 2.34375 -3.96875 2.34375 -3.75 L 2.34375 -0.9375 C 2.34375 -0.65625 2.382812 -0.460938 2.46875 -0.359375 C 2.550781 -0.265625 2.691406 -0.21875 2.890625 -0.21875 L 2.890625 0 C 2.765625 -0.0078125 2.585938 -0.0195312 2.359375 -0.03125 C 2.128906 -0.0390625 1.890625 -0.046875 1.640625 -0.046875 C 1.378906 -0.046875 1.113281 -0.0390625 0.84375 -0.03125 C 0.570312 -0.0195312 0.375 -0.0078125 0.25 0 L 0.25 -0.21875 C 0.476562 -0.21875 0.640625 -0.265625 0.734375 -0.359375 C 0.835938 -0.460938 0.890625 -0.65625 0.890625 -0.9375 L 0.890625 -4.125 C 0.890625 -4.425781 0.84375 -4.648438 0.75 -4.796875 C 0.65625 -4.941406 0.488281 -5.015625 0.25 -5.015625 L 0.25 -5.234375 C 0.457031 -5.210938 0.664062 -5.203125 0.875 -5.203125 C 1.15625 -5.203125 1.414062 -5.210938 1.65625 -5.234375 C 1.90625 -5.253906 2.132812 -5.289062 2.34375 -5.34375 L 2.34375 -4.421875 C 2.507812 -4.765625 2.738281 -5.007812 3.03125 -5.15625 C 3.320312 -5.300781 3.644531 -5.375 4 -5.375 Z M 4 -5.375 "/></g></g><g clip-rule="nonzero" clip-path="url(#9b9e091aa1)"><path style=" stroke:none;fill-rule:nonzero;fill:#ffffff;fill-opacity:1;" d="M 13.964844 19.710938 C 12.921875 19.851562 12.808594 19.96875 12.664062 21.011719 C 12.523438 19.96875 12.410156 19.851562 11.363281 19.710938 C 12.410156 19.566406 12.523438 19.453125 12.664062 18.410156 C 12.808594 19.453125 12.921875 19.566406 13.964844 19.710938 "/></g><g clip-rule="nonzero" clip-path="url(#a7b45e7aa8)"><path style=" stroke:none;fill-rule:nonzero;fill:#ffffff;fill-opacity:1;" d="M 18.304688 24.699219 C 11.121094 25.164062 10.746094 25.542969 10.28125 32.726562 C 9.8125 25.542969 9.4375 25.164062 2.253906 24.699219 C 9.4375 24.234375 9.8125 23.855469 10.28125 16.671875 C 10.746094 23.855469 11.121094 24.234375 18.304688 24.699219 "/></g></g></svg>